<?xml version="1.0" encoding="UTF-8"?>
<svg xmlns="http://www.w3.org/2000/svg" id="Layer_1" data-name="Layer 1" viewBox="0 0 24 24">
  <path d="M22.326,6.616c-.03-.13-.111-.242-.224-.312-.113-.07-.249-.091-.379-.061-.048,.012-4.849,1.149-9.722,1.149-4.18,0-8.229-.799-9.339-1.037,.172-.736,.335-1.281,.431-1.579,1.013-.211,4.733-.923,8.909-.923h8.193c.276,0,.5-.224,.5-.5s-.224-.5-.5-.5H12c-4.993,0-9.361,.998-9.405,1.007-.165,.038-.298,.157-.356,.315-.051,.138-1.239,3.426-1.239,7.825,0,4.436,1.188,7.69,1.239,7.826,.059,.158,.192,.275,.356,.313,.043,.01,4.401,1.007,9.405,1.007s9.361-.998,9.405-1.007c.165-.038,.298-.157,.356-.315,.051-.138,1.239-3.426,1.239-7.825,0-2.486-.39-4.161-.674-5.384Zm-1.417,12.608c-1.013,.211-4.733,.923-8.909,.923s-7.899-.712-8.91-.923c-.272-.837-1.09-3.655-1.09-7.224,0-1.789,.21-3.401,.453-4.667,1.156,.247,5.282,1.059,9.547,1.059,4.073,0,8.092-.774,9.462-1.067,.303,1.355,.538,2.715,.538,4.675,0,3.532-.82,6.378-1.091,7.224Z"/>
  <circle cx="17.74" cy="13.333" r=".75"/>
</svg>
